<?xml version="1.0" encoding="UTF-8" standalone="no"?>
<!-- Created with Inkscape (http://www.inkscape.org/) -->

<svg
   version="1.1"
   id="svg1"
   width="672"
   height="864"
   viewBox="0 0 672 864"
   sodipodi:docname="microEOS.svg"
   inkscape:version="1.4.2 (ebf0e940d0, 2025-05-08)"
   inkscape:export-filename="microEOS.png"
   inkscape:export-xdpi="96"
   inkscape:export-ydpi="96"
   xmlns:inkscape="http://www.inkscape.org/namespaces/inkscape"
   xmlns:sodipodi="http://sodipodi.sourceforge.net/DTD/sodipodi-0.dtd"
   xmlns="http://www.w3.org/2000/svg"
   xmlns:svg="http://www.w3.org/2000/svg">
  <defs
     id="defs1">
    <clipPath
       clipPathUnits="userSpaceOnUse"
       id="clipPath1">
      <path
         d="M 72,192 H 888 V 1248 H 72 Z"
         id="path1" />
    </clipPath>
  </defs>
  <sodipodi:namedview
     id="namedview1"
     pagecolor="#ffffff"
     bordercolor="#000000"
     borderopacity="0.25"
     inkscape:showpageshadow="2"
     inkscape:pageopacity="0.0"
     inkscape:pagecheckerboard="0"
     inkscape:deskcolor="#d1d1d1"
     showgrid="false"
     inkscape:zoom="3.9803167"
     inkscape:cx="233.02166"
     inkscape:cy="298.59433"
     inkscape:window-width="1707"
     inkscape:window-height="995"
     inkscape:window-x="0"
     inkscape:window-y="0"
     inkscape:window-maximized="1"
     inkscape:current-layer="layer1"
     inkscape:export-bgcolor="#ffffff00">
    <inkscape:page
       x="0"
       y="0"
       inkscape:label="1"
       id="page1"
       width="672"
       height="864"
       margin="0"
       bleed="0" />
  </sodipodi:namedview>
  <g
     id="g1"
     inkscape:groupmode="layer"
     inkscape:label="1"
     clip-path="url(#clipPath1)"
     style="display:none;opacity:0.509">
    <path
       id="path2"
       d="m 8.3203125,0 -0.00585,-1.9570313 H 3.7324286 l 5.893e-4,-8.1562497 H 0.93223661 L 0.9375,0 Z m 3.9023435,0 0.0054,-7.03125 H 9.5678571 L 9.5625,0 Z m 0.0066,-8.2382813 -1.34e-4,-1.8749997 H 9.5455179 l 1.339e-4,1.8749997 z m 6.941923,4.5 c -0.0032,0.8671875 -0.240242,1.9570313 -1.341804,1.9570313 -1.089844,0 -1.321513,-1.0898438 -1.318353,-1.9570313 0.0032,-0.8671875 0.228523,-1.9570312 1.318366,-1.9570312 1.101563,0 1.344951,1.0898437 1.341791,1.9570312 z m 2.66329,-3.2929687 h -2.589844 l -0.07625,1.0195312 h -0.03516 c -0.397031,-0.8203125 -1.163906,-1.2304687 -2.136562,-1.2304687 -2.039063,0 -3.218451,1.453125 -3.216107,3.5039062 1.33e-4,1.875 1.061236,3.5039063 3.076861,3.5039063 0.890625,0 1.837915,-0.33984375 2.280389,-1.125 h 0.03516 l -0.0064,0.796875 c -9.51e-4,1.04296875 -0.204803,1.7929687 -1.376678,1.7929687 -0.28125,0 -0.563237,-0.058594 -0.775648,-0.1757812 -0.205674,-0.140625 -0.341772,-0.33984375 -0.35791,-0.69140625 h -2.48437 c 0.0091,2.02734375 2.071754,2.41406255 3.630348,2.41406255 0.878906,0 2.328348,-0.2929688 3.036844,-0.9843751 0.84091,-0.7851562 0.94354,-1.57031245 0.991647,-2.7773437 z M 26.138672,0 l -0.0015,-4.03125 c 0.006,-0.082031 -0.159777,-1.5234375 1.152723,-1.5234375 0.820313,0 0.988969,0.7382812 1.016264,1.4179687 L 28.306641,0 h 2.660156 l -0.0053,-4.7109375 c 0.01102,-1.546875 -1.11229,-2.53125 -2.624009,-2.53125 -0.902344,0 -1.604277,0.28125 -2.193094,0.984375 l -0.01097,-3.8554685 H 23.473252 L 23.478516,0 Z m 5.946763,-7.03125 -0.0046,1.6875 h 1.371094 l -3.62e-4,3.140625 c -0.139299,2.15625 0.946755,2.4140625 2.751442,2.4140625 0.398438,0 0.838768,-0.0234375 1.434951,-0.140625 l -0.0082,-1.5820313 c -0.294724,0.046875 -0.658005,0.046875 -1.009567,0.046875 -0.621094,0 -0.51071,-0.9140625 -0.503692,-1.1015625 l -0.0044,-2.7773437 h 1.535157 l 0.0046,-1.6875 h -1.535157 l -0.0073,-2.0742188 -2.656861,1.0078125 0.004,1.0664063 z M 41.777344,0 l 0.0054,-7.03125 H 39.122545 L 39.117187,0 Z m 0.0066,-8.2382813 -1.34e-4,-1.8749997 h -2.683594 l 1.34e-4,1.8749997 z m 4.530994,1.2070313 h -2.695312 c 0.06817,0.7617187 0.07333,1.171875 0.07894,1.8046875 L 43.696289,0 h 2.660156 l -0.0015,-4.03125 c 0.006,-0.082031 -0.159776,-1.5234375 1.152724,-1.5234375 0.820312,0 0.988968,0.7382812 1.016263,1.4179687 L 48.524414,0 h 2.660156 l -0.0053,-4.7109375 c 0.01102,-1.546875 -1.11229,-2.53125 -2.624009,-2.53125 -0.902343,0 -1.604276,0.28125 -2.193093,0.984375 z m 11.747843,3.2929687 c -0.0032,0.8671875 -0.240241,1.9570313 -1.341803,1.9570313 -1.089844,0 -1.321514,-1.0898438 -1.318353,-1.9570313 0.0032,-0.8671875 0.228522,-1.9570312 1.318366,-1.9570312 1.101562,0 1.344951,1.0898437 1.34179,1.9570312 z M 60.72606,-7.03125 h -2.589843 l -0.07625,1.0195312 h -0.03516 c -0.397032,-0.8203125 -1.163907,-1.2304687 -2.136563,-1.2304687 -2.039062,0 -3.218451,1.453125 -3.216107,3.5039062 1.34e-4,1.875 1.061237,3.5039063 3.076862,3.5039063 0.890625,0 1.837915,-0.33984375 2.280388,-1.125 h 0.03516 l -0.0064,0.796875 c -9.51e-4,1.04296875 -0.204804,1.7929687 -1.376679,1.7929687 -0.28125,0 -0.563236,-0.058594 -0.775647,-0.1757812 C 55.700147,0.9140625 55.564049,0.71484375 55.54791,0.36328125 h -2.484375 c 0.0091,2.02734375 2.071755,2.41406255 3.630349,2.41406255 0.878906,0 2.328348,-0.2929688 3.036843,-0.9843751 0.840911,-0.7851562 0.94354,-1.57031245 0.991648,-2.7773437 z m 13.422539,2.4609375 C 74.018086,-6.5625 72.345184,-7.265625 70.557198,-7.2421875 c -2.109375,0 -3.861683,1.1835937 -3.860183,3.7265625 0.0025,2.4375 1.202316,3.7265625 3.862473,3.7265625 0.932518,-0.0234375 1.817705,-0.26953125 2.503218,-0.73828125 0.645375,-0.49218755 1.088585,-1.21875005 1.087782,-2.21484375 h -2.660157 c -0.0061,0.6328125 -0.114455,1.3359375 -1.048727,1.40625 -0.960938,0 -1.012018,-1.453125 -1.014121,-2.1796875 -0.0021,-0.7265625 0.05229,-2.1796875 1.013223,-2.1796875 0.410157,0 0.67867,0.1054687 0.838206,0.3046875 0.147817,0.1992187 0.207603,0.4804687 0.209531,0.8203125 z m 3.833572,1.0546875 c -8.04e-4,-0.9960938 0.239785,-2.1796875 1.353067,-2.1796875 1.125,0 1.364879,1.1835937 1.365683,2.1796875 8.03e-4,0.9960937 -0.239786,2.1796875 -1.364786,2.1796875 -1.113281,0 -1.353161,-1.1835938 -1.353964,-2.1796875 z m 1.35237,-3.7265625 c -2.191406,0 -4.082585,1.1367187 -4.082839,3.7265625 -2.54e-4,2.58984375 1.893723,3.7265625 4.085129,3.7265625 2.203125,0 4.094304,-1.13671875 4.094559,-3.7265625 2.54e-4,-2.5898438 -1.893724,-3.7265625 -4.096849,-3.7265625 z M 87.54442,-7.03125 h -2.695313 c 0.06817,0.7617187 0.07333,1.171875 0.07894,1.8046875 L 84.925781,0 h 2.660157 l -0.0015,-4.03125 c 0.006,-0.082031 -0.159777,-1.5234375 1.152723,-1.5234375 0.820312,0 0.988969,0.7382812 1.016263,1.4179687 L 89.753906,0 h 2.660157 l -0.0053,-4.7109375 c 0.01102,-1.546875 -1.112291,-2.53125 -2.624009,-2.53125 -0.902344,0 -1.604277,0.28125 -2.193094,0.984375 z m 5.985351,0 -0.0046,1.6875 h 1.371094 l -3.62e-4,3.140625 c -0.139299,2.15625 0.946755,2.4140625 2.751442,2.4140625 0.398438,0 0.838768,-0.0234375 1.434951,-0.140625 l -0.0082,-1.5820313 c -0.294724,0.046875 -0.658005,0.046875 -1.009567,0.046875 -0.621094,0 -0.51071,-0.9140625 -0.503692,-1.1015625 l -0.0044,-2.7773437 h 1.535156 l 0.0046,-1.6875 h -1.535156 l -0.0073,-2.0742188 -2.656861,1.0078125 0.004,1.0664063 z m 9.568359,0 h -2.69531 c 0.0682,0.7617187 0.0733,1.171875 0.0789,1.8046875 L 100.47949,0 h 2.66016 l -2e-4,-2.8125 c -0.0521,-1.3476563 0.42977,-2.1679688 1.81932,-2.1914063 0.1875,0 0.36328,0 0.55577,0.023437 l -3.1e-4,-2.2617187 c -1.16514,-0.023437 -2.03215,0.3632812 -2.34804,1.5234375 h -0.0234 z m 5.99146,3.515625 c -8e-4,-0.9960938 0.23979,-2.1796875 1.35307,-2.1796875 1.125,0 1.36488,1.1835937 1.36568,2.1796875 8.1e-4,0.9960937 -0.23978,2.1796875 -1.36478,2.1796875 -1.11328,0 -1.35316,-1.1835938 -1.35397,-2.1796875 z m 1.35237,-3.7265625 c -2.1914,0 -4.08258,1.1367187 -4.08284,3.7265625 -2.5e-4,2.58984375 1.89373,3.7265625 4.08513,3.7265625 2.20313,0 4.09431,-1.13671875 4.09456,-3.7265625 2.6e-4,-2.5898438 -1.89372,-3.7265625 -4.09685,-3.7265625 z M 118.77539,0 l -0.005,-10.113281 h -2.66016 L 116.11523,0 Z m 12.81484,-4.8632813 c -0.10883,-1.9453125 -1.65413,-2.3789062 -3.32991,-2.3789062 -1.39453,0 -3.23771,0.4804687 -3.24403,2.2148437 0.002,2.5429688 4.15706,1.8046875 4.1658,3.0585938 9.1e-4,0.4453125 -0.38111,0.6328125 -0.89674,0.6328125 -0.25781,0 -0.47271,-0.1289063 -0.62976,-0.3164063 -0.15704,-0.1875 -0.21858,-0.421875 -0.19311,-0.6328125 h -2.51953 c -10e-4,2.1445313 1.66732,2.4960938 3.38998,2.4960938 1.61718,0 3.36661,-0.48046875 3.36897,-2.34375 0.002,-1.1484375 -0.57639,-1.6640625 -1.40712,-1.9335938 -1.67992,-0.515625 -2.76229,-0.4804687 -2.7572,-1.0078125 -0.003,-0.3984375 0.24297,-0.6210937 0.62969,-0.6210937 0.36328,0 0.59415,0.09375 0.732,0.2460937 0.12364,0.140625 0.16848,0.3515625 0.17143,0.5859375 z m 6.51474,-2.1679687 -1.51591,4.8867187 h -0.0352 L 135.17528,-7.03125 h -2.83594 l 2.93401,7.2421875 -0.99782,2.4726563 h 2.44922 l 3.82944,-9.7148438 z m 9.8212,2.1679687 c -0.10883,-1.9453125 -1.65413,-2.3789062 -3.32991,-2.3789062 -1.39453,0 -3.23771,0.4804687 -3.24403,2.2148437 0.002,2.5429688 4.15706,1.8046875 4.16579,3.0585938 9.1e-4,0.4453125 -0.3811,0.6328125 -0.89673,0.6328125 -0.25781,0 -0.47271,-0.1289063 -0.62976,-0.3164063 -0.15704,-0.1875 -0.21858,-0.421875 -0.19311,-0.6328125 h -2.51953 c -10e-4,2.1445313 1.66732,2.4960938 3.38997,2.4960938 1.61719,0 3.36662,-0.48046875 3.36898,-2.34375 0.002,-1.1484375 -0.57639,-1.6640625 -1.40712,-1.9335938 -1.67992,-0.515625 -2.76229,-0.4804687 -2.75721,-1.0078125 -0.003,-0.3984375 0.24298,-0.6210937 0.6297,-0.6210937 0.36328,0 0.59414,0.09375 0.732,0.2460937 0.12364,0.140625 0.16848,0.3515625 0.17143,0.5859375 z m 0.81942,-2.1679687 -0.005,1.6875 h 1.3711 l -3.6e-4,3.140625 c -0.1393,2.15625 0.94675,2.4140625 2.75144,2.4140625 0.39844,0 0.83877,-0.0234375 1.43495,-0.140625 l -0.008,-1.5820313 c -0.29472,0.046875 -0.658,0.046875 -1.00957,0.046875 -0.62109,0 -0.51071,-0.9140625 -0.50369,-1.1015625 l -0.004,-2.7773437 h 1.53516 l 0.005,-1.6875 h -1.53516 l -0.007,-2.0742188 -2.65687,1.0078125 0.004,1.0664063 z m 14.04887,4.0429687 c 0.007,-2.6132812 -0.91597,-4.2539062 -3.77535,-4.2539062 -2.10937,0 -3.77393,1.265625 -3.76938,3.4921875 -5.3e-4,2.75390625 1.11152,3.9609375 3.92402,3.9609375 0.83203,0 1.61996,-0.15234375 2.22667,-0.55078125 0.67951,-0.38671875 1.25485,-1.04296875 1.3418,-1.95703125 h -2.46094 c -0.10659,0.65625 -0.57092,1.0078125 -1.3092,1.0078125 -0.9961,0 -1.23331,-0.7851563 -1.21668,-1.6992188 z M 157.80554,-4.40625 c 0.0742,-0.8085938 0.28628,-1.4648438 1.2163,-1.5 0.41441,-0.035156 0.71208,0.1523437 0.9267,0.4453125 0.21462,0.2929687 0.32949,0.6679687 0.32966,1.0546875 z m 8.91075,-2.625 h -2.625 c 0.0682,0.7617187 0.0733,1.171875 0.0789,1.8046875 L 164.16797,0 h 2.66016 l -10e-4,-4.03125 c 0.006,-0.082031 -0.1715,-1.5234375 1.15272,-1.5234375 0.82031,0 0.98897,0.7382812 1.01626,1.4179687 L 168.99609,0 h 2.66016 l -0.001,-4.03125 c 0.006,-0.082031 -0.15978,-1.5234375 1.15272,-1.5234375 0.83203,0 0.98897,0.7382812 1.01627,1.4179687 L 173.82422,0 h 2.66015 l -0.005,-4.7109375 c 0.011,-1.546875 -1.11229,-2.53125 -2.62401,-2.53125 -1.04722,0.035156 -2.01398,0.5039062 -2.49087,1.3476562 -0.29904,-0.8554687 -1.26089,-1.3007812 -2.11635,-1.3007812 -1.04297,0 -1.97356,0.3632812 -2.47242,1.3242187 h -0.0234 z m 0,0"
       style="fill:#000000;fill-opacity:1;fill-rule:nonzero;stroke:none"
       aria-label="Lighting control system"
       transform="matrix(1.3333333,0,-0.28342857,1.3333333,144,363)" />
    <path
       id="path6"
       d="m 134.68066,2.0846484 c -0.76171,-0.3984375 -1.51171,-0.7148437 -2.08593,-0.9023437 0.60937,-2.01562501 0.85547,-2.6601563 1.86328,-5.3554688 0.72656,-1.9453125 1.33594,-3.4570312 1.80469,-4.5703125 0.60937,-1.4062504 1.00781,-2.2734374 2.15625,-4.6171874 -3.09375,2.554687 -6.58594,5.9414062 -8.27344,8.0624999 -1.23047,1.5117188 -2.37891,3.3867188 -3.21094,5.12109379 -0.10547,0.17578125 -0.17578,0.46875 -0.36328,0.890625 l -0.35156,-0.17578125 -0.76172,-0.28125 -0.67969,-0.2578125 -0.22266,-0.0703125 c 0.76172,-1.58203124 1.05469,-2.20312504 1.80469,-3.92578124 0.4336,-1.0078125 1.11328,-2.6953125 2.1211,-5.109375 2.20312,-5.1914062 2.77734,-6.5859372 3.3164,-8.0976562 0.0352,-0.1875 0.10547,-0.398438 0.21094,-0.726563 0.46875,0.222657 0.58594,0.292969 1.19531,0.539063 l 0.75,0.292969 0.39844,0.140625 -0.32813,0.726562 -0.89062,2.121094 -0.86719,1.945312 c -0.39844,0.890625 -0.67969,1.546875 -1.4414,3.1640629 1.21875,-1.3359379 1.58203,-1.6874999 3.28125,-3.2343749 1.00781,-0.9375 1.75781,-1.628906 2.26171,-2.0625 l 1.98047,-1.722656 c 1.11328,-0.9375 1.72266,-1.476563 1.91016,-1.582032 0.14062,-0.105468 0.36328,-0.292968 0.64453,-0.503906 l 0.22266,0.210938 0.53906,0.574218 0.60937,0.539063 0.21094,0.222656 -0.35156,0.75 -1.08984,2.015625 c -0.53907,1.007813 -1.14844,2.449219 -2.98829,6.8789064 -0.71484,1.734375 -1.2539,3.1289063 -1.61718,4.1367188 z m -7.49707,-16.0546874 c 0,3.632812 -2.08593,8.6718749 -5.28515,12.6679687 -1.58203,1.94531249 -3.5625,3.140625 -5.33203,3.140625 -1.94532,0 -3.23438,-1.66406251 -3.23438,-3.9609375 0,-2.34375 1.1836,-5.8710938 2.98828,-9.0000002 1.72266,-2.917969 3.66797,-5.039062 5.54297,-6.082031 0.53906,-0.292969 1.21875,-0.46875 1.94531,-0.46875 2.05079,0 3.375,1.476562 3.375,3.703125 z m -2.33203,0.257812 c 0,-1.054687 -0.46875,-1.628906 -1.30078,-1.628906 -1.2539,0 -2.8125,1.40625 -4.46484,3.960938 -1.98047,3.0234372 -3.45703,6.9140622 -3.45703,9.0351559 0,1.1601563 0.5039,1.87500004 1.33593,1.87500004 1.44141,0 3.45704,-2.05078124 5.36719,-5.40234374 1.61719,-2.9179688 2.51953,-5.7187502 2.51953,-7.8398442 z m -9.04101,-2.015625 c -0.78516,1.394532 -1.00782,1.863282 -2.01563,4.03125 -0.64453,1.429688 -1.28906,2.8710942 -1.91015,4.2421879 l -1.89844,4.359375 c -0.79688,1.7929688 -1.26563,2.91796879 -1.44141,3.35156254 -0.0352,0.140625 -0.11719,0.3515625 -0.25781,0.64453125 -0.83203,-0.64453125 -1.37109,-1.0078125 -1.94531,-1.37109375 0.79687,-1.47656254 0.97265,-1.87500004 2.01562,-4.32421874 0.50391,-1.21875 1.125,-2.625 1.80469,-4.1367188 0.75,-1.7578124 1.44141,-3.2695314 2.01562,-4.5703124 0.97266,-2.191406 1.07813,-2.449219 1.58204,-3.667969 l 0.29296,0.175781 0.71485,0.574219 c 0.43359,0.328125 0.60937,0.433594 1.04297,0.691406 z m 2.67187,-5.835937 c -0.39844,0.714844 -0.5039,0.9375 -0.9375,1.875 -0.62109,1.253906 -0.72656,1.429687 -1.16015,2.296875 -0.10547,-0.105471 -0.17574,-0.105471 -0.21094,-0.175781 -0.0703,-0.03516 -0.32813,-0.175782 -0.67969,-0.46875 -0.22266,-0.140625 -0.46875,-0.328125 -0.72656,-0.503907 l -0.21094,-0.175781 c 0.67969,-1.371094 0.85547,-1.734375 1.14844,-2.378906 l 0.64453,-1.441406 0.22266,-0.503907 0.3164,0.246094 0.69141,0.550781 c 0.3164,0.246094 0.46875,0.351563 0.90234,0.679688 z M 93.166992,0.03386719 C 89.170898,-0.32941406 89.569336,-0.54035156 89.569336,-0.54035156 L 90.75293,-2.3801953 c 0.9375,0.2929687 -0.07031,0.3984375 2.519531,0.609375 5.507812,0.46875 10.664059,-0.6445313 10.874999,-2.8710938 0.0703,-1.078125 -0.9375,-2.015625 -3.35156,-2.8828125 l -2.882814,-1.0429687 c -4.3125,-1.5820317 -5.425781,-2.3437497 -5.320313,-3.7499997 0.175782,-1.863282 2.917969,-3.5625 7.089844,-4.3125 2.050783,-0.363285 5.906253,-0.503907 7.781253,-0.328125 0.17578,0.644531 -0.1875,1.910156 -0.1875,1.910156 -2.80078,0 -5.25,-0.03516 -6.87891,0.246094 -3.058593,0.621093 -5.039064,1.476562 -5.109374,2.308593 -0.03516,0.539063 0.574219,1.042969 1.945312,1.441407 0.140625,0.07031 1.007813,0.363281 2.519532,0.902343 l 2.27344,0.8554692 c 3.1289,1.1953125 4.57031,2.6367187 4.38281,4.5820312 -0.31641,3.6679688 -5.92969,5.39062504 -13.242188,4.74609379 z M 90.969727,-15.727852 c -0.785157,1.394532 -1.007813,1.863282 -2.015625,4.03125 -0.644532,1.429688 -1.289063,2.8710942 -1.910157,4.2421879 l -1.898437,4.359375 c -0.796875,1.7929688 -1.265625,2.91796879 -1.441406,3.35156254 -0.03516,0.140625 -0.117188,0.3515625 -0.257813,0.64453125 -0.832031,-0.64453125 -1.371094,-1.0078125 -1.945312,-1.37109375 0.796875,-1.47656254 0.972656,-1.87500004 2.015625,-4.32421874 0.503906,-1.21875 1.125,-2.625 1.804687,-4.1367188 0.75,-1.7578124 1.441406,-3.2695314 2.015625,-4.5703124 0.972656,-2.191406 1.078125,-2.449219 1.582031,-3.667969 l 0.292969,0.175781 0.714844,0.574219 c 0.433594,0.328125 0.609375,0.433594 1.042969,0.691406 z m 2.671875,-5.835937 c -0.398438,0.714844 -0.503907,0.9375 -0.9375,1.875 -0.621094,1.253906 -0.726563,1.429687 -1.160157,2.296875 -0.105468,-0.105471 -0.175777,-0.105471 -0.210937,-0.175781 -0.07031,-0.03516 -0.328125,-0.175782 -0.679688,-0.46875 -0.222656,-0.140625 -0.46875,-0.328125 -0.726562,-0.503907 l -0.210938,-0.175781 c 0.679688,-1.371094 0.855469,-1.734375 1.148438,-2.378906 l 0.644531,-1.441406 0.222656,-0.503907 0.316407,0.246094 0.691406,0.550781 c 0.316406,0.246094 0.46875,0.351563 0.902344,0.679688 z m -4.576172,-1.734375 h 2e-6 c -3.351563,3.351562 -6.117188,6.808594 -9.796875,12.246094 -2.519532,3.6679684 -4.207032,6.4453122 -5.214844,8.5664059 -0.433594,0.8320313 -0.867188,1.87500004 -1.335938,3.02343754 l -0.316406,0.79687496 -1.875,-0.93749996 c 0.105469,-0.796875 0.105469,-1.11328125 0.105469,-1.87500004 0,-1.40625 -0.07031,-3.3164062 -0.246094,-5.25 -0.1875,-2.484375 -0.46875,-4.7578124 -1.089844,-8.7539064 -0.609375,-4.066406 -1.042968,-6.375 -1.441406,-8.167969 -0.03516,-0.152343 -0.105465,-0.363281 -0.140625,-0.621093 1.160156,-0.386719 1.441406,-0.539063 2.414063,-1.007813 0.398437,1.839844 0.46875,2.414063 0.902343,5.402344 0.363282,2.378906 0.609375,4.21875 0.785157,5.542969 0.46875,3.421875 0.796875,6.3749997 0.9375,8.6132809 0,0.28125 0.03515,0.7148438 0.07031,1.2890625 1.230469,-2.3789062 1.734375,-3.2695312 3.070313,-5.4023437 0.785156,-1.2187497 1.685061,-2.5915297 2.730468,-4.1015627 2.118657,-3.060283 3.632813,-5.109375 5.871094,-7.851562 0.785156,-0.925782 1.546875,-1.863282 2.332031,-2.765625 l 0.621094,-0.726563 c 0.351563,0.503906 0.503906,0.691406 0.855469,1.125 l 0.503906,0.574219 z m -23.118164,9.328125 c 0,3.632812 -2.085938,8.6718749 -5.285157,12.6679687 -1.582031,1.94531249 -3.5625,3.140625 -5.332031,3.140625 -1.945312,0 -3.234375,-1.66406251 -3.234375,-3.9609375 0,-2.34375 1.183594,-5.8710938 2.988281,-9.0000002 1.722657,-2.917969 3.667969,-5.039062 5.542969,-6.082031 0.539063,-0.292969 1.21875,-0.46875 1.945313,-0.46875 2.050781,0 3.375,1.476562 3.375,3.703125 z m -2.332032,0.257812 c 0,-1.054687 -0.46875,-1.628906 -1.300781,-1.628906 -1.253906,0 -2.8125,1.40625 -4.464844,3.960938 -1.980468,3.0234372 -3.457031,6.9140622 -3.457031,9.0351559 0,1.1601563 0.503906,1.87500004 1.335938,1.87500004 1.441406,0 3.457031,-2.05078124 5.367187,-5.40234374 1.617188,-2.9179688 2.519531,-5.7187502 2.519531,-7.8398442 z M 42.225586,0.71355469 41.874023,0.57292969 41.112305,0.25652344 c -0.210938,-0.0820313 -0.46875,-0.1875 -0.832032,-0.2578125 L 39.928711,-0.10675781 40.50293,-1.2669141 c 1.007812,-2.0507812 1.792968,-3.8789062 3.351562,-7.5234375 1.6875,-3.9140624 2.695313,-6.2929684 3.410156,-8.0273434 l 0.292969,-0.75 c 0.175781,0.07031 0.292971,0.140621 0.363281,0.175781 0.386719,0.152344 0.609375,0.257809 0.714844,0.292969 l 0.832031,0.316406 0.351563,0.1875 -0.246094,0.539062 -0.574219,1.253907 -0.539062,1.230468 -0.398438,0.902344 c 1.113282,-1.089844 1.582032,-1.441406 2.765625,-2.378906 1.335938,-1.042969 2.484375,-1.875 4.042969,-2.917969 l 0.785156,-0.503906 0.222657,0.210937 0.574218,0.65625 0.609375,0.714844 0.246094,0.257813 c -1.511719,0.714843 -2.050781,1.042968 -3.84375,2.226562 -2.8125,1.910156 -4.605469,3.386719 -6.046875,5.1093752 -1.441406,1.7695312 -2.203125,3.0234375 -3.714844,6.515625 -0.902343,2.09765624 -1.007812,2.34374999 -1.476562,3.49218749 z M 38.988281,-3.5637891 c -3.023437,3.35156254 -5.578125,4.9335938 -7.921875,4.9335938 -1.980469,0 -3.269531,-1.51171876 -3.269531,-3.8554688 0,-3.0234375 1.582031,-6.8085937 4.242187,-10.0078129 2.589844,-3.09375 5.507813,-4.898437 7.921875,-4.898437 1.6875,0 2.847657,1.113281 2.847657,2.742187 0,0.9375 -0.222657,1.582032 -1.195313,3.304688 -0.714844,-0.28125 -1.359375,-0.46875 -2.332031,-0.644531 0.972656,-1.183594 1.253906,-1.722657 1.253906,-2.308594 0,-0.539063 -0.503906,-0.972656 -1.078125,-0.972656 -1.582031,0 -3.925781,1.804687 -6.1875,4.792968 -2.015625,2.6601567 -3.210937,5.5078129 -3.210937,7.6992192 0,1.265625 0.574218,2.06249999 1.511718,2.06249999 1.699219,0 3.996094,-1.80468749 5.765625,-4.42968749 0.140625,0.1757815 0.24609,0.1757815 0.28125,0.2109375 0.07031,0.1054687 0.257813,0.2929687 0.503907,0.5390625 0.1875,0.2226562 0.398437,0.3984375 0.574218,0.5742187 z m -8.71582,-12.1640629 c -0.785156,1.394532 -1.007813,1.863282 -2.015625,4.03125 -0.644531,1.429688 -1.289063,2.8710942 -1.910156,4.2421879 l -1.898438,4.359375 c -0.796875,1.7929688 -1.265625,2.91796879 -1.441406,3.35156254 -0.03516,0.140625 -0.117188,0.3515625 -0.257813,0.64453125 -0.832031,-0.64453125 -1.371093,-1.0078125 -1.945312,-1.37109375 0.796875,-1.47656254 0.972656,-1.87500004 2.015625,-4.32421874 0.503906,-1.21875 1.125,-2.625 1.804687,-4.1367188 0.75,-1.7578124 1.441407,-3.2695314 2.015625,-4.5703124 0.972657,-2.191406 1.078125,-2.449219 1.582032,-3.667969 l 0.292968,0.175781 0.714844,0.574219 c 0.433594,0.328125 0.609375,0.433594 1.042969,0.691406 z m 2.671875,-5.835937 c -0.398438,0.714844 -0.503906,0.9375 -0.9375,1.875 -0.621094,1.253906 -0.726563,1.429687 -1.160156,2.296875 -0.105469,-0.105471 -0.175778,-0.105471 -0.210938,-0.175781 -0.07031,-0.03516 -0.328125,-0.175782 -0.679687,-0.46875 -0.222657,-0.140625 -0.46875,-0.328125 -0.726563,-0.503907 l -0.210937,-0.175781 c 0.679687,-1.371094 0.855468,-1.734375 1.148437,-2.378906 l 0.644531,-1.441406 0.222657,-0.503907 0.316406,0.246094 0.691406,0.550781 c 0.316406,0.246094 0.46875,0.351563 0.902344,0.679688 z M 16.3125,1.9791797 C 15.1875,1.3346484 14.871094,1.1471484 14.144531,0.90105469 l 0.503907,-1.11328125 1.300781,-3.14062504 c 1.007812,-2.3320312 2.015625,-4.4648437 3.703125,-7.8398434 l 0.65625,-1.300782 -1.230469,1.078125 c -2.449219,2.2031254 -3.128906,2.8476567 -4.746094,4.4648442 -0.972656,1.0078125 -1.769531,1.8398437 -2.378906,2.5898437 -1.40625,1.5820313 -2.1210937,2.6367188 -3.3164062,4.86328129 l -1.7929688,-0.9375 5.109375,-12.38671919 c -1.371094,1.042969 -1.804687,1.40625 -3.3515625,2.777344 -2.765625,2.4492189 -4.4296875,4.0312502 -5.3671875,5.1093752 -1.1132812,1.265625 -1.7578125,2.2734375 -3.375,5.00390624 l -0.3984375,-0.17578125 c -0.8320312,-0.43359375 -1.0429687,-0.5390625 -1.6171875,-0.796875 l 0.609375,-1.14843749 1.4765625,-3.2109375 1.875,-4.171875 1.8984375,-4.2070312 c 1.125,-2.519531 1.7695312,-3.960938 1.9453125,-4.394531 0.070312,-0.175782 0.1875,-0.433594 0.328125,-0.796875 0.609375,0.398437 0.8320312,0.539062 1.875,0.972656 l 0.3164063,0.1875 -0.3164063,0.785156 -1.078125,2.238281 -1.3359375,2.730469 -1.265625,2.5546877 -0.8203125,1.6992187 c 1.7929687,-1.8046875 2.5195312,-2.4843754 3.8789062,-3.7148434 0.65625,-0.574219 1.5585938,-1.324219 2.6367188,-2.261719 l 2.2968755,-1.945313 c 1.230468,-1.042968 1.441406,-1.265625 2.203125,-2.085937 0.316406,0.28125 0.46875,0.386719 0.785156,0.574219 l 0.65625,0.398437 0.28125,0.175781 c -1.113281,1.757813 -1.511719,2.554688 -3.058594,6.046875 -0.609375,1.4062504 -1.042969,2.3437504 -1.21875,2.7773442 -0.117187,0.2460937 -0.257812,0.609375 -0.46875,1.1484375 l 1.078125,-1.1484375 c 2.050781,-2.1679688 3.199219,-3.3164062 5.179687,-5.0859372 0.761719,-0.679688 1.582032,-1.359375 2.449219,-2.121094 1.183594,-1.007813 1.910156,-1.617188 2.15625,-1.828125 0.152344,-0.117188 0.328125,-0.292969 0.585938,-0.503906 l 0.28125,0.175781 c 0.539062,0.433594 0.832031,0.609375 1.335937,0.972656 l 0.210938,0.105469 c -0.902344,1.617187 -1.21875,2.226562 -2.015625,3.785156 -1.582032,3.0937502 -3.421875,7.0195314 -4.429688,9.5742189 l -1.582031,3.84375 z"
       style="fill:#000000;fill-opacity:1;fill-rule:nonzero;stroke:none"
       aria-label="microVision"
       transform="matrix(1.3333333,0,0,1.3333333,147,297.24)"
       sodipodi:nodetypes="cccccccccccccccccccccccccccccccccccccscssccsssscsscscccccccccccccccccccccccccccccccccccccccccccccccccccccccccccccccccccccccccscccccsccccccccccsccccccscssccsssscsscscccccccccccccccccccccccccccccsscssccsscsscccccccccccccccccccccccccccccccccccccccccccccccccccccccccccccccccccccccccccccccccccc" />
    <path
       id="path7"
       d="m 14.411133,0.79652344 0.128906,-0.3984375 0.269531,-0.83203125 0.28125,-0.78515629 4.464844,-10.6523434 0.949219,-0.05859 c 2.109375,-0.128906 3.550781,-0.152344 4.828125,-0.152344 0.679687,0 1.007812,0 1.898437,0.05859 l -0.09375,-0.304688 c -0.328125,-0.890625 -0.363281,-1.042968 -0.550781,-1.652343 -1.898437,0.152343 -4.582031,0.269531 -6.269531,0.269531 l 1.957031,-4.675781 h 0.949219 l 1.933594,0.02344 2.355468,0.07031 2.472657,0.05859 1.042968,0.02344 -0.1875,-0.457031 -0.328125,-0.796875 -0.28125,-0.667969 -0.05859,-0.1875 h -0.855469 c -1.042969,0.03516 -2.449219,0.03516 -4.804688,0.03516 -3.644531,0 -4.558593,0 -6.339843,-0.09375 l 0.09375,0.339844 0.128906,0.644531 0.175781,0.703125 0.05859,0.363281 c 0.527344,-0.05859 0.738281,-0.05859 1.195312,-0.05859 h 0.339844 l -1.921875,4.710937 -0.492187,0.02344 c -0.585938,0 -1.230469,0.03516 -1.898438,0.03516 -0.304687,0 -0.609375,-0.03516 -0.890625,-0.03516 h -0.550781 c 0.246094,0.585937 0.28125,0.714843 0.363281,0.949218 l 0.222656,0.796875 0.05859,0.222657 c 0.644531,-0.09375 1.21875,-0.128907 2.449219,-0.1875 l -4.863281,11.60156219 c 0.117187,0.0585937 0.246093,0.1171875 0.304687,0.15234375 0.703125,0.36328125 0.761719,0.421875 1.160156,0.703125 z M 47.244141,5.5426172 c 0.09375,-0.1523438 0.1875,-0.2460938 0.246093,-0.3398438 0.03516,-0.058594 0.1875,-0.2460937 0.433594,-0.5859375 0.269531,-0.3632812 0.328125,-0.4921875 0.550781,-0.8203125 -0.222656,-0.2226562 -0.375,-0.3984375 -0.492187,-0.4921875 -1.136719,-1.21875 -2.507813,-2.90624996 -3.585938,-4.40625 -0.574218,-0.8203125 -1.195312,-1.7460937 -1.828125,-2.8125 -1.078125,-1.7109375 -1.40625,-2.3320312 -2.90625,-5.1679687 l -0.433593,-0.796875 0.609375,-0.7031252 2.355468,-2.671875 2.941407,-3.386719 2.074218,-2.390625 0.46875,-0.492187 c -0.398437,-0.574219 -0.773437,-1.277344 -1.078125,-2.015625 l -0.609375,0.738281 -1.921875,2.355469 c -0.644531,0.761719 -1.570312,1.886719 -2.789062,3.328125 -0.949219,1.101562 -1.6875,1.957031 -2.203125,2.542969 l -0.703125,0.820312 c -0.1875,-0.398437 -0.339844,-0.703125 -0.433594,-0.878906 -0.667969,-1.570313 -1.40625,-3.457031 -2.074219,-5.542969 -0.550781,-1.6875 -0.738281,-2.472656 -0.925781,-3.972656 l -0.304687,0.269531 -0.703125,0.679688 -0.703125,0.632812 -0.304688,0.246094 c 0.398438,1.230469 0.550781,1.652344 1.136719,3.210937 0.492187,1.289063 0.914062,2.425782 1.277344,3.375 0.703125,1.769532 0.925781,2.261719 1.570312,3.574219 -0.738281,0.8554689 -0.925781,1.1015627 -2.203125,2.4140627 l -2.425781,2.5195312 c -1.5,1.5585938 -1.980469,1.9804688 -5.074219,4.73437504 l -0.492187,0.3984375 0.152343,0.3984375 c 0.128907,0.33984375 0.210938,0.609375 0.28125,0.76171876 0.152344,0.5273437 0.246094,0.796875 0.246094,0.8320312 0.02344,0.058594 0.05859,0.058594 0.08203,0.2460938 1.324219,-1.19531251 1.78125,-1.68750001 2.941407,-2.78906251 1.042968,-1.06640629 3.269531,-3.36328129 4.921875,-5.07421879 l 1.875,-1.9570312 0.609375,-0.6210938 0.421875,0.796875 c 1.476562,2.7890625 2.449218,4.3828125 4.101562,6.83203129 0.855469,1.25390625 1.652344,2.32031251 2.355469,3.26953121 0.949219,1.21875 1.382812,1.7109375 2.542969,2.9414063 z m 0,0"
       style="fill:#000000;fill-opacity:1;fill-rule:nonzero;stroke:none"
       aria-label=" FX"
       transform="matrix(1.3333333,0,0,1.3333333,291,326.52)" />
  </g>
  <g
     inkscape:groupmode="layer"
     id="layer1"
     inkscape:label="2">
    <path
       id="path6-5"
       d="m 234.92969,278.61312 c 0,4.84375 -2.78125,11.5625 -7.04688,16.89063 -2.10937,2.59375 -4.75,4.1875 -7.10937,4.1875 -2.59375,0 -4.3125,-2.21875 -4.3125,-5.28125 0,-3.125 1.55769,-7.83998 3.98437,-12 2.27651,-3.90258 4.89063,-6.71875 7.39063,-8.10938 0.71875,-0.39062 1.625,-0.625 2.59375,-0.625 2.73437,0 4.5,1.96875 4.5,4.9375 z m -3.10938,0.34375 c 0,-1.40625 -0.625,-2.17187 -1.73437,-2.17187 -1.67188,0 -3.75,1.875 -5.95313,5.28125 -2.64062,4.03125 -4.60937,9.21875 -4.60937,12.04687 0,1.54688 0.67187,2.5 1.78125,2.5 1.92187,0 4.60937,-2.73437 7.15625,-7.20312 2.15625,-3.89063 3.35937,-7.625 3.35937,-10.45313 z m -28.51953,19.23438 -0.46875,-0.1875 -1.01562,-0.42188 c -0.28126,-0.10937 -0.625,-0.25 -1.10938,-0.34375 l -0.46875,-0.14062 0.76563,-1.54688 c 1.34374,-2.73437 2.39062,-5.17187 4.46874,-10.03125 2.25,-5.21875 3.59376,-8.39062 4.54688,-10.70312 l 0.39062,-1 c 0.23438,0.0937 0.39063,0.18749 0.48438,0.23437 0.51562,0.20313 0.8125,0.34375 0.95312,0.39063 l 1.10938,0.42187 0.46875,0.25 -0.32813,0.71875 -0.76562,1.67188 -0.71875,1.64062 -0.53125,1.20313 c 1.48438,-1.45313 2.10938,-1.92188 3.6875,-3.17188 1.78125,-1.39062 3.3125,-2.5 5.39062,-3.89062 l 1.04688,-0.67188 0.29687,0.28125 0.76563,0.875 0.8125,0.95313 0.32812,0.34375 c -2.01562,0.95312 -2.73437,1.39062 -5.125,2.96875 -3.75,2.54687 -6.14062,4.51562 -8.0625,6.8125 -1.92187,2.35937 -2.9375,4.03125 -4.95312,8.6875 -1.20312,2.79687 -1.34375,3.125 -1.96875,4.65625 z m -4.31641,-5.70313 c -4.03125,4.46875 -7.4375,6.57813 -10.5625,6.57813 -2.64062,0 -4.35937,-2.01563 -4.35937,-5.14063 0,-4.03125 2.10937,-9.07812 5.65625,-13.34375 3.45312,-4.125 7.34375,-6.53125 10.5625,-6.53125 2.25,0 3.79687,1.48438 3.79687,3.65625 0,1.25 -0.29687,2.10938 -1.59375,4.40625 -0.95312,-0.375 -1.8125,-0.625 -3.10937,-0.85937 1.29687,-1.57813 1.67187,-2.29688 1.67187,-3.07813 0,-0.71875 -0.67187,-1.29687 -1.4375,-1.29687 -2.10937,0 -5.23437,2.40625 -8.25,6.39062 -2.6875,3.54688 -4.28125,7.34375 -4.28125,10.26563 0,1.6875 0.76563,2.75 2.01563,2.75 2.26562,0 5.32812,-2.40625 7.6875,-5.90625 0.1875,0.23437 0.32812,0.23437 0.375,0.28125 0.0937,0.14062 0.34375,0.39062 0.67187,0.71875 0.25,0.29687 0.53125,0.53125 0.76563,0.76562 z m -11.62109,-16.21875 c -1.04687,1.85938 -1.34375,2.48438 -2.6875,5.375 -0.85937,1.90625 -1.71875,3.82813 -2.54687,5.65625 l -2.53125,5.8125 c -1.0625,2.39063 -1.6875,3.89063 -1.92188,4.46875 -0.0469,0.1875 -0.15625,0.46875 -0.34375,0.85938 -1.10937,-0.85938 -1.82812,-1.34375 -2.59375,-1.82813 1.0625,-1.96875 1.29688,-2.5 2.6875,-5.76562 0.67188,-1.625 1.5,-3.5 2.40625,-5.51563 1,-2.34375 1.92188,-4.35937 2.6875,-6.09375 1.29688,-2.92187 1.4375,-3.26562 2.10938,-4.89062 l 0.39062,0.23437 0.95313,0.76563 c 0.57812,0.4375 0.8125,0.57812 1.39062,0.92187 z m 3.5625,-7.78125 c -0.53125,0.95313 -0.67187,1.25 -1.25,2.5 -0.82813,1.67188 -0.96875,1.90625 -1.54687,3.0625 -0.14063,-0.14063 -0.23438,-0.14063 -0.28126,-0.23437 -0.0937,-0.0469 -0.4375,-0.23438 -0.90624,-0.625 -0.29688,-0.1875 -0.625,-0.4375 -0.96875,-0.67188 l -0.28125,-0.23437 c 0.90625,-1.82813 1.14062,-2.3125 1.53124,-3.17188 l 0.85938,-1.92187 0.29688,-0.67188 0.42187,0.32813 0.92187,0.73437 c 0.42188,0.32813 0.625,0.46875 1.20313,0.90625 z M 168.75,299.87875 c -1.5,-0.85938 -1.92188,-1.10938 -2.89063,-1.4375 l 0.67188,-1.48438 1.73437,-4.1875 c 1.34375,-3.10937 2.6875,-5.95312 4.9375,-10.45312 l 0.875,-1.73438 -1.64062,1.4375 c -3.26563,2.9375 -4.17188,3.79688 -6.32813,5.95313 -1.29687,1.34375 -2.35937,2.45312 -3.17187,3.45312 -1.875,2.10938 -2.82813,3.51563 -4.42188,6.48438 l -2.39062,-1.25 6.8125,-16.51563 c -1.82813,1.39063 -2.40625,1.875 -4.46875,3.70313 -3.6875,3.26562 -5.90625,5.375 -7.15625,6.8125 -1.48438,1.6875 -2.34375,3.03125 -4.5,6.67187 l -0.53125,-0.23437 c -1.10937,-0.57813 -1.39062,-0.71875 -2.15625,-1.0625 l 0.8125,-1.53125 1.96875,-4.28125 2.5,-5.5625 2.53125,-5.60938 c 1.5,-3.35937 2.35937,-5.28125 2.59375,-5.85937 0.0937,-0.23438 0.25,-0.57813 0.4375,-1.0625 0.8125,0.53125 1.10937,0.71875 2.5,1.29687 l 0.42187,0.25 -0.42187,1.04688 -1.4375,2.98437 -1.78125,3.64063 -1.6875,3.40625 -1.09375,2.26562 c 2.39062,-2.40625 3.35937,-3.3125 5.17187,-4.95312 0.875,-0.76563 2.07813,-1.76563 3.51563,-3.01563 l 3.0625,-2.59375 c 1.64062,-1.39062 1.92187,-1.6875 2.9375,-2.78125 0.42187,0.375 0.625,0.51563 1.04687,0.76563 l 0.875,0.53125 0.375,0.23437 c -1.48437,2.34375 -2.01562,3.40625 -4.07812,8.0625 -0.8125,1.875 -1.39063,3.125 -1.625,3.70313 -0.15625,0.32812 -0.34375,0.8125 -0.625,1.53125 l 1.4375,-1.53125 c 2.73437,-2.89063 4.26562,-4.42188 6.90625,-6.78125 1.01562,-0.90625 2.10937,-1.8125 3.26562,-2.82813 1.57813,-1.34375 2.54688,-2.15625 2.875,-2.4375 0.20313,-0.15625 0.4375,-0.39062 0.78125,-0.67187 l 0.375,0.23437 c 0.71875,0.57813 1.10938,0.8125 1.78125,1.29688 l 0.28125,0.14062 c -1.20312,2.15625 -1.625,2.96875 -2.6875,5.04688 -2.10937,4.125 -4.5625,9.35937 -5.90625,12.76562 l -2.10937,5.125 z"
       style="fill:#000000;fill-opacity:1;fill-rule:nonzero;stroke:none;stroke-width:1.33333"
       aria-label="microVision"
       inkscape:label="micro"
       sodipodi:nodetypes="scssscsssscsscscccccccccccccccccccccccccccccsscssccsscsscccccccccccccccccccccccccccccccccccccccccccccccccccccccccccccccccccccccccccccccccccc" />
    <path
       d="m 297.11257,300.25297 c -7.37147,-0.67014 -6.63649,-1.05925 -6.63649,-1.05925 l 2.18334,-3.3939 c 1.72937,0.54043 -0.12964,0.73499 4.64771,1.1241 10.1601,0.86469 19.67167,-1.18895 20.06079,-5.29623 0.12964,-1.98879 -1.72937,-3.71816 -6.18253,-5.31784 l -5.31784,-1.92393 c -7.95514,-2.91833 -10.00878,-4.32344 -9.81422,-6.91751 0.32425,-3.43715 5.38268,-6.57164 13.07842,-7.95515 3.78302,-0.67014 10.8951,-0.92954 14.35386,-0.60528 0.32425,1.18894 -0.34588,3.5236 -0.34588,3.5236 -5.16652,0 -9.68452,-0.0649 -12.68932,0.45397 -5.64211,1.14571 -9.29543,2.72377 -9.42512,4.25859 -0.0649,0.99439 1.05924,1.92394 3.58846,2.65893 0.25941,0.12963 1.85909,0.67013 4.6477,1.66452 l 4.19376,1.57806 c 5.77178,2.20496 8.43071,4.86388 8.08483,8.45234 -0.58367,6.7662 -10.93832,9.94393 -24.42747,8.75498 z"
       style="fill:#000000;fill-opacity:1;fill-rule:nonzero;stroke:none;stroke-width:1.84467"
       id="path1-0"
       inkscape:label="s" />
    <path
       d="m 293.73193,273.85514 c 0,5.93544 -4.15716,14.16847 -10.53305,20.69746 -3.15292,3.17834 -7.09989,5.13128 -10.62648,5.13128 -3.8769,0 -6.44595,-2.71881 -6.44595,-6.47154 0,-3.82931 2.32829,-9.60696 5.95549,-14.70457 3.40274,-4.78215 7.31009,-8.23303 11.04687,-9.93709 1.07432,-0.47866 2.42892,-0.76586 3.87692,-0.76586 4.08709,0 6.7262,2.41247 6.7262,6.05032 z m -4.64763,0.42122 c 0,-1.72319 -0.93419,-2.66136 -2.59238,-2.66136 -2.49898,0 -5.60518,2.29758 -8.89823,6.47154 -3.94696,4.93982 -6.88968,11.29649 -6.88968,14.76201 0,1.89551 1.00426,3.06345 2.66246,3.06345 2.87265,0 6.88969,-3.35064 10.69653,-8.82657 3.22298,-4.7675 5.0213,-9.34352 5.0213,-12.80907 z"
       style="fill:#000000;fill-opacity:1;fill-rule:nonzero;stroke:none;stroke-width:1.80447"
       id="path1-7"
       inkscape:label="o" />
    <text
       xml:space="preserve"
       style="font-size:79.1846px;font-family:'Van Dijk';-inkscape-font-specification:'Van Dijk';text-align:start;writing-mode:lr-tb;direction:ltr;text-anchor:start;fill:#000000;stroke-width:2.014;stroke-dasharray:none"
       x="197.38031"
       y="354.22083"
       id="text2"
       transform="scale(1.1876315,0.84201203)"
       inkscape:label="e"><tspan
         sodipodi:role="line"
         id="tspan2"
         x="197.38031"
         y="354.22083"
         style="font-style:normal;font-variant:normal;font-weight:bold;font-stretch:normal;font-size:79.1846px;font-family:'Van Dijk';-inkscape-font-specification:'Van Dijk Bold';stroke-width:2.014;stroke-dasharray:none">e</tspan></text>
  </g>
</svg>
